<svg xmlns="http://www.w3.org/2000/svg" viewBox="0 0 200 200" fill="none" stroke="#D4B37D" stroke-width="3.5" stroke-linecap="round" stroke-linejoin="round">
<g transform="translate(0,5)">
<path d="M100 35 C72 35 50 57 50 85 C50 106 62 121 75 132 L75 148 L125 148 L125 132 C138 121 150 106 150 85 C150 57 128 35 100 35 Z"/>
<line x1="75" y1="158" x2="125" y2="158"/>
<line x1="82" y1="168" x2="118" y2="168"/>
<line x1="90" y1="178" x2="110" y2="178"/>
<line x1="100" y1="10" x2="100" y2="25"/>
<line x1="40" y1="35" x2="50" y2="45"/>
<line x1="160" y1="35" x2="150" y2="45"/>
<line x1="20" y1="85" x2="35" y2="85"/>
<line x1="180" y1="85" x2="165" y2="85"/>
<line x1="40" y1="135" x2="50" y2="125"/>
<line x1="160" y1="135" x2="150" y2="125"/>
<path d="M88 110 L88 125 M112 110 L112 125 M88 110 Q100 95 112 110"/>
</g>
</svg>