<svg xmlns="http://www.w3.org/2000/svg" viewBox="0 0 200 200" fill="none" stroke="#D4B37D" stroke-width="2.5" stroke-linecap="round" stroke-linejoin="round">
<!-- 三顆星 -->
<path d="M75 18 L77 24 L83 24 L78 28 L80 34 L75 30 L70 34 L72 28 L67 24 L73 24 Z" fill="#D4B37D"/>
<path d="M100 12 L103 20 L111 20 L105 25 L107 33 L100 28 L93 33 L95 25 L89 20 L97 20 Z" fill="#D4B37D"/>
<path d="M125 18 L127 24 L133 24 L128 28 L130 34 L125 30 L120 34 L122 28 L117 24 L123 24 Z" fill="#D4B37D"/>
<!-- 獎盃主體（杯型） -->
<path d="M65 45 L135 45 L130 100 Q128 115 100 118 Q72 115 70 100 Z" stroke-width="2.5"/>
<!-- 獎盃兩側耳 -->
<path d="M65 55 Q45 55 45 75 Q45 90 65 92" stroke-width="2.2"/>
<path d="M135 55 Q155 55 155 75 Q155 90 135 92" stroke-width="2.2"/>
<!-- 杯腳 -->
<line x1="100" y1="118" x2="100" y2="140"/>
<path d="M75 140 L125 140"/>
<!-- 底座 -->
<rect x="65" y="140" width="70" height="14" rx="2"/>
<!-- 20 數字 -->
<text x="100" y="92" text-anchor="middle" fill="#D4B37D" stroke="none" font-family="serif" font-size="34" font-weight="700">20</text>
<!-- 底座下方緞帶（簡化） -->
<path d="M75 154 L70 175 L82 172 Z" stroke-width="2"/>
<path d="M125 154 L130 175 L118 172 Z" stroke-width="2"/>
</svg>